<svg xmlns="http://www.w3.org/2000/svg" viewBox="0 0 520 320"><rect width="520" height="320" fill="#f8fbff"/><text x="28" y="42" font-family="Arial" font-size="24" font-weight="700" fill="#17212b">Box Plot</text><text x="28" y="70" font-family="Arial" font-size="14" fill="#526572">Spread, median, and outliers</text><g stroke="#33424d" stroke-width="3" fill="none"><line x1="120" y1="102" x2="120" y2="250"/><rect x="88" y="142" width="64" height="72" fill="#dbeafe"/><line x1="88" y1="178" x2="152" y2="178"/><line x1="98" y1="102" x2="142" y2="102"/><line x1="98" y1="250" x2="142" y2="250"/><line x1="250" y1="126" x2="250" y2="232"/><rect x="218" y="158" width="64" height="46" fill="#ccfbf1"/><line x1="218" y1="186" x2="282" y2="186"/><line x1="228" y1="126" x2="272" y2="126"/><line x1="228" y1="232" x2="272" y2="232"/><line x1="380" y1="90" x2="380" y2="240"/><rect x="348" y="130" width="64" height="78" fill="#fef3c7"/><line x1="348" y1="164" x2="412" y2="164"/><line x1="358" y1="90" x2="402" y2="90"/><line x1="358" y1="240" x2="402" y2="240"/></g><g fill="#be123c"><circle cx="120" cy="82" r="6"/><circle cx="380" cy="262" r="6"/></g></svg>