<svg xmlns="http://www.w3.org/2000/svg" viewBox="0 0 800 520"><rect width="800" height="520" fill="#f7fbff"/><rect x="52" y="42" width="696" height="436" rx="14" fill="#fff" stroke="#d8e1e8"/><text x="82" y="84" font-family="Arial" font-size="27" font-weight="800" fill="#17212b">Customer Analysis Dashboard</text><rect x="82" y="112" width="280" height="310" rx="10" fill="#f8fafc" stroke="#e2e8f0"/><rect x="392" y="112" width="326" height="145" rx="10" fill="#f8fafc" stroke="#e2e8f0"/><rect x="392" y="278" width="326" height="144" rx="10" fill="#f8fafc" stroke="#e2e8f0"/><g transform="translate(110 150)"><text x="0" y="0" font-family="Arial" font-size="16" font-weight="700" fill="#17212b">Customer Segments</text><circle cx="90" cy="115" r="72" fill="#bfdbfe"/><circle cx="90" cy="115" r="44" fill="#fff"/><path d="M90 115 L90 43 A72 72 0 0 1 158 138 Z" fill="#0f766e"/><path d="M90 115 L158 138 A72 72 0 0 1 42 170 Z" fill="#f59e0b"/><text x="10" y="235" font-family="Arial" font-size="14" fill="#334155">High value • New • At risk</text></g><g transform="translate(422 150)"><text x="0" y="0" font-family="Arial" font-size="16" font-weight="700" fill="#17212b">Top Customers by Profit</text><rect x="0" y="32" width="240" height="18" fill="#0f766e"/><rect x="0" y="66" width="190" height="18" fill="#2563eb"/><rect x="0" y="100" width="145" height="18" fill="#f59e0b"/></g><g transform="translate(422 318)"><text x="0" y="0" font-family="Arial" font-size="16" font-weight="700" fill="#17212b">Retention Trend</text><polyline points="0,80 45,70 90,76 135,48 180,40 225,28 270,34" fill="none" stroke="#7c3aed" stroke-width="7" stroke-linecap="round"/></g></svg>