<svg xmlns="http://www.w3.org/2000/svg" viewBox="0 0 640 420"><rect width="640" height="420" fill="#f7fbff"/><rect x="60" y="42" width="520" height="330" rx="10" fill="#10202a"/><text x="88" y="82" font-family="Arial" font-size="22" font-weight="700" fill="#e8f3f4">Executive Sales Dashboard</text><g fill="#fff"><rect x="88" y="105" width="130" height="70" rx="8"/><rect x="238" y="105" width="130" height="70" rx="8"/><rect x="388" y="105" width="130" height="70" rx="8"/><rect x="88" y="195" width="260" height="130" rx="8"/><rect x="368" y="195" width="150" height="130" rx="8"/></g><g fill="#0f766e"><rect x="110" y="270" width="28" height="35"/><rect x="150" y="238" width="28" height="67"/><rect x="190" y="255" width="28" height="50"/><rect x="230" y="220" width="28" height="85"/><rect x="270" y="245" width="28" height="60"/></g><polyline points="390,290 420,260 450,275 480,230 505,245" fill="none" stroke="#2563eb" stroke-width="6" stroke-linecap="round"/></svg>