<svg xmlns="http://www.w3.org/2000/svg" viewBox="0 0 760 460"><rect width="760" height="460" fill="#f8fbff"/><rect x="24" y="24" width="712" height="412" rx="14" fill="#fff" stroke="#d8e1e8"/><text x="48" y="66" font-family="Arial" font-size="26" font-weight="700" fill="#17212b">Distribution and Outlier Dashboard</text><text x="48" y="94" font-family="Arial" font-size="15" fill="#526572">Histogram, box plot, and scatter analysis</text><g font-family="Arial"><rect x="48" y="120" width="146" height="68" rx="10" fill="#eef6ff" stroke="#d8e1e8"/><text x="66" y="148" font-size="13" font-weight="700" fill="#526572">Metric</text><text x="66" y="174" font-size="25" font-weight="800" fill="#7c3aed">84%</text><rect x="214" y="120" width="146" height="68" rx="10" fill="#f0fdfa" stroke="#d8e1e8"/><text x="232" y="148" font-size="13" font-weight="700" fill="#526572">Target</text><text x="232" y="174" font-size="25" font-weight="800" fill="#2563eb">92%</text><rect x="380" y="120" width="146" height="68" rx="10" fill="#fff7ed" stroke="#d8e1e8"/><text x="398" y="148" font-size="13" font-weight="700" fill="#526572">Gap</text><text x="398" y="174" font-size="25" font-weight="800" fill="#be123c">-8%</text><rect x="546" y="120" width="142" height="68" rx="10" fill="#faf5ff" stroke="#d8e1e8"/><text x="564" y="148" font-size="13" font-weight="700" fill="#526572">Items</text><text x="564" y="174" font-size="25" font-weight="800" fill="#14b8a6">128</text></g><g transform="translate(48 220)"><rect width="302" height="168" rx="10" fill="#f8fafc" stroke="#d8e1e8"/><path d="M24 132 L70 104 L116 112 L162 70 L208 82 L256 44 L276 56 L276 144 L24 144 Z" fill="#2563eb" opacity=".35"/><polyline points="24,132 70,104 116,112 162,70 208,82 256,44 276,56" fill="none" stroke="#7c3aed" stroke-width="6" stroke-linecap="round" stroke-linejoin="round"/><rect x="34" y="38" width="44" height="92" rx="6" fill="#7c3aed" opacity=".78"/><rect x="98" y="72" width="44" height="58" rx="6" fill="#2563eb" opacity=".78"/><rect x="162" y="56" width="44" height="74" rx="6" fill="#be123c" opacity=".78"/><text x="22" y="24" font-family="Arial" font-size="14" font-weight="700" fill="#33424d">Trend / distribution</text></g><g transform="translate(384 220)"><rect width="304" height="168" rx="10" fill="#f8fafc" stroke="#d8e1e8"/><rect x="24" y="32" width="92" height="48" rx="7" fill="#7c3aed"/><rect x="126" y="32" width="62" height="48" rx="7" fill="#2563eb"/><rect x="198" y="32" width="80" height="48" rx="7" fill="#be123c"/><circle cx="64" cy="120" r="34" fill="#14b8a6" opacity=".8"/><circle cx="132" cy="122" r="24" fill="#2563eb" opacity=".82"/><circle cx="190" cy="118" r="30" fill="#7c3aed" opacity=".76"/><circle cx="246" cy="124" r="18" fill="#be123c" opacity=".84"/><text x="22" y="24" font-family="Arial" font-size="14" font-weight="700" fill="#33424d">Map / segment / detail</text></g></svg>