<svg xmlns="http://www.w3.org/2000/svg" viewBox="0 0 800 520"><rect width="800" height="520" fill="#f8fafc"/><rect x="50" y="44" width="700" height="430" rx="14" fill="#ffffff" stroke="#d8e1e8"/><text x="78" y="86" font-family="Arial" font-size="27" font-weight="800" fill="#17212b">Executive KPI Dashboard</text><g><rect x="78" y="112" width="200" height="105" rx="10" fill="#ecfeff" stroke="#bae6fd"/><rect x="300" y="112" width="200" height="105" rx="10" fill="#f0fdf4" stroke="#bbf7d0"/><rect x="522" y="112" width="200" height="105" rx="10" fill="#fff7ed" stroke="#fed7aa"/></g><g font-family="Arial"><text x="102" y="150" font-size="15" fill="#64748b">Revenue</text><text x="102" y="188" font-size="34" font-weight="800" fill="#075985">$4.8M</text><text x="324" y="150" font-size="15" fill="#64748b">Margin</text><text x="324" y="188" font-size="34" font-weight="800" fill="#15803d">18.4%</text><text x="546" y="150" font-size="15" fill="#64748b">Risk Items</text><text x="546" y="188" font-size="34" font-weight="800" fill="#b45309">7</text></g><rect x="78" y="246" width="425" height="180" rx="10" fill="#f8fafc" stroke="#e2e8f0"/><rect x="526" y="246" width="196" height="180" rx="10" fill="#f8fafc" stroke="#e2e8f0"/><g transform="translate(105 285)"><text x="0" y="0" font-family="Arial" font-size="16" font-weight="700" fill="#17212b">Quarterly Scorecard</text><rect x="0" y="35" width="330" height="20" fill="#cbd5e1"/><rect x="0" y="35" width="280" height="20" fill="#0f766e"/><rect x="0" y="75" width="330" height="20" fill="#cbd5e1"/><rect x="0" y="75" width="220" height="20" fill="#2563eb"/><rect x="0" y="115" width="330" height="20" fill="#cbd5e1"/><rect x="0" y="115" width="300" height="20" fill="#f59e0b"/></g><g transform="translate(552 285)" font-family="Arial"><text x="0" y="0" font-size="16" font-weight="700" fill="#17212b">Focus</text><text x="0" y="42" font-size="15" fill="#334155">✅ Revenue stable</text><text x="0" y="78" font-size="15" fill="#334155">⚠️ Costs rising</text><text x="0" y="114" font-size="15" fill="#334155">🎯 Improve margin</text></g></svg>