<svg xmlns="http://www.w3.org/2000/svg" viewBox="0 0 800 520"><rect width="800" height="520" fill="#f7fbff"/><rect x="52" y="42" width="696" height="436" rx="14" fill="#fff" stroke="#d8e1e8"/><text x="82" y="84" font-family="Arial" font-size="27" font-weight="800" fill="#17212b">Finance Dashboard</text><rect x="82" y="110" width="640" height="84" rx="10" fill="#f8fafc" stroke="#e2e8f0"/><g font-family="Arial"><text x="110" y="145" font-size="15" fill="#64748b">Revenue</text><text x="110" y="176" font-size="28" font-weight="800" fill="#0f766e">$9.4M</text><text x="290" y="145" font-size="15" fill="#64748b">Expense</text><text x="290" y="176" font-size="28" font-weight="800" fill="#be123c">$6.8M</text><text x="470" y="145" font-size="15" fill="#64748b">Net Income</text><text x="470" y="176" font-size="28" font-weight="800" fill="#2563eb">$2.6M</text></g><rect x="82" y="224" width="305" height="200" rx="10" fill="#f8fafc" stroke="#e2e8f0"/><rect x="417" y="224" width="305" height="200" rx="10" fill="#f8fafc" stroke="#e2e8f0"/><g transform="translate(112 266)"><text x="0" y="0" font-family="Arial" font-size="16" font-weight="700" fill="#17212b">Budget vs Actual</text><rect x="0" y="50" width="230" height="26" fill="#cbd5e1"/><rect x="0" y="50" width="195" height="26" fill="#2563eb"/><rect x="0" y="98" width="230" height="26" fill="#cbd5e1"/><rect x="0" y="98" width="250" height="26" fill="#be123c"/></g><g transform="translate(450 266)"><text x="0" y="0" font-family="Arial" font-size="16" font-weight="700" fill="#17212b">Cash Flow</text><polyline points="0,120 45,100 90,112 135,72 180,85 225,44" fill="none" stroke="#0f766e" stroke-width="7" stroke-linecap="round"/></g></svg>