<svg xmlns="http://www.w3.org/2000/svg" viewBox="0 0 520 320"><rect width="520" height="320" fill="#f8fbff"/><text x="28" y="42" font-family="Arial" font-size="24" font-weight="700" fill="#17212b">Heat Map</text><text x="28" y="70" font-family="Arial" font-size="14" fill="#526572">Color intensity across two dimensions</text><g transform="translate(98 100)"><g stroke="#fff" stroke-width="4"><rect x="0" y="0" width="70" height="44" fill="#dbeafe"/><rect x="70" y="0" width="70" height="44" fill="#93c5fd"/><rect x="140" y="0" width="70" height="44" fill="#2563eb"/><rect x="210" y="0" width="70" height="44" fill="#1d4ed8"/><rect x="0" y="44" width="70" height="44" fill="#ccfbf1"/><rect x="70" y="44" width="70" height="44" fill="#2dd4bf"/><rect x="140" y="44" width="70" height="44" fill="#0f766e"/><rect x="210" y="44" width="70" height="44" fill="#115e59"/><rect x="0" y="88" width="70" height="44" fill="#fef3c7"/><rect x="70" y="88" width="70" height="44" fill="#fbbf24"/><rect x="140" y="88" width="70" height="44" fill="#d97706"/><rect x="210" y="88" width="70" height="44" fill="#92400e"/></g><g font-family="Arial" font-size="12" fill="#33424d"><text x="18" y="158">Q1</text><text x="88" y="158">Q2</text><text x="158" y="158">Q3</text><text x="228" y="158">Q4</text></g></g></svg>