<svg xmlns="http://www.w3.org/2000/svg" viewBox="0 0 760 460"><rect width="760" height="460" fill="#f8fbff"/><rect x="24" y="24" width="712" height="412" rx="14" fill="#fff" stroke="#d8e1e8"/><text x="48" y="66" font-family="Arial" font-size="26" font-weight="700" fill="#17212b">Logistics Delivery Dashboard</text><text x="48" y="94" font-family="Arial" font-size="15" fill="#526572">Delivery delays and routes</text><g font-family="Arial"><rect x="48" y="122" width="142" height="72" rx="10" fill="#eef6ff" stroke="#d8e1e8"/><text x="66" y="150" font-size="13" font-weight="700" fill="#526572">KPI</text><text x="66" y="178" font-size="26" font-weight="800" fill="#0f766e">$482K</text><rect x="210" y="122" width="142" height="72" rx="10" fill="#f0fdfa" stroke="#d8e1e8"/><text x="228" y="150" font-size="13" font-weight="700" fill="#526572">Target</text><text x="228" y="178" font-size="26" font-weight="800" fill="#f97316">91%</text><rect x="372" y="122" width="142" height="72" rx="10" fill="#fff7ed" stroke="#d8e1e8"/><text x="390" y="150" font-size="13" font-weight="700" fill="#526572">Risk</text><text x="390" y="178" font-size="26" font-weight="800" fill="#2563eb">12</text><rect x="536" y="122" width="152" height="72" rx="10" fill="#faf5ff" stroke="#d8e1e8"/><text x="554" y="150" font-size="13" font-weight="700" fill="#526572">Change</text><text x="554" y="178" font-size="26" font-weight="800" fill="#7c3aed">+8.4%</text></g><g transform="translate(48 224)"><rect width="300" height="164" rx="10" fill="#f8fafc" stroke="#d8e1e8"/><rect x="28" y="84" width="32" height="56" rx="5" fill="#0f766e"/><rect x="78" y="48" width="32" height="92" rx="5" fill="#f97316"/><rect x="128" y="68" width="32" height="72" rx="5" fill="#2563eb"/><rect x="178" y="28" width="32" height="112" rx="5" fill="#64748b"/><polyline points="28,122 78,98 128,104 178,62 228,76 268,42" fill="none" stroke="#f59e0b" stroke-width="5" stroke-linecap="round" stroke-linejoin="round"/><text x="22" y="24" font-family="Arial" font-size="14" font-weight="700" fill="#33424d">Trend + bars</text></g><g transform="translate(378 224)"><rect width="310" height="164" rx="10" fill="#f8fafc" stroke="#d8e1e8"/><rect x="26" y="34" width="92" height="42" rx="6" fill="#0f766e"/><rect x="128" y="34" width="72" height="42" rx="6" fill="#f97316"/><rect x="210" y="34" width="66" height="42" rx="6" fill="#2563eb"/><rect x="26" y="90" width="64" height="42" rx="6" fill="#7c3aed"/><rect x="100" y="90" width="86" height="42" rx="6" fill="#14b8a6"/><rect x="196" y="90" width="92" height="42" rx="6" fill="#f97316"/><text x="22" y="24" font-family="Arial" font-size="14" font-weight="700" fill="#33424d">Mix / heat / detail</text></g></svg>