<svg xmlns="http://www.w3.org/2000/svg" viewBox="0 0 800 520"><rect width="800" height="520" fill="#f8fafc"/><rect x="52" y="42" width="696" height="436" rx="14" fill="#10202a"/><text x="82" y="84" font-family="Arial" font-size="27" font-weight="800" fill="#e8f3f4">Operations Dashboard</text><g fill="#fff"><rect x="82" y="110" width="200" height="92" rx="10"/><rect x="304" y="110" width="200" height="92" rx="10"/><rect x="526" y="110" width="190" height="92" rx="10"/><rect x="82" y="230" width="300" height="190" rx="10"/><rect x="408" y="230" width="308" height="190" rx="10"/></g><g font-family="Arial"><text x="105" y="143" font-size="15" fill="#64748b">On-time</text><text x="105" y="178" font-size="32" font-weight="800" fill="#15803d">94%</text><text x="327" y="143" font-size="15" fill="#64748b">Backlog</text><text x="327" y="178" font-size="32" font-weight="800" fill="#b45309">312</text><text x="549" y="143" font-size="15" fill="#64748b">Alerts</text><text x="549" y="178" font-size="32" font-weight="800" fill="#be123c">11</text></g><g transform="translate(112 270)"><text x="0" y="0" font-family="Arial" font-size="16" font-weight="700" fill="#17212b">Orders by Status</text><rect x="0" y="42" width="210" height="25" fill="#15803d"/><rect x="0" y="84" width="150" height="25" fill="#f59e0b"/><rect x="0" y="126" width="75" height="25" fill="#be123c"/></g><g transform="translate(438 270)"><text x="0" y="0" font-family="Arial" font-size="16" font-weight="700" fill="#17212b">Daily Volume</text><polyline points="0,130 40,80 80,95 120,45 160,65 200,30 250,58" fill="none" stroke="#2563eb" stroke-width="7" stroke-linecap="round"/></g></svg>