<svg xmlns="http://www.w3.org/2000/svg" viewBox="0 0 800 520"><rect width="800" height="520" fill="#f7fbff"/><rect x="48" y="38" width="704" height="444" rx="14" fill="#10202a"/><text x="78" y="83" font-family="Arial" font-size="26" font-weight="800" fill="#e8f3f4">Sales Performance Dashboard</text><g fill="#fff"><rect x="78" y="108" width="145" height="78" rx="9"/><rect x="242" y="108" width="145" height="78" rx="9"/><rect x="406" y="108" width="145" height="78" rx="9"/><rect x="570" y="108" width="145" height="78" rx="9"/><rect x="78" y="210" width="360" height="210" rx="9"/><rect x="462" y="210" width="253" height="210" rx="9"/></g><g font-family="Arial"><text x="98" y="137" font-size="15" fill="#64748b">Sales</text><text x="98" y="169" font-size="28" font-weight="800" fill="#0f766e">$1.2M</text><text x="262" y="137" font-size="15" fill="#64748b">Profit</text><text x="262" y="169" font-size="28" font-weight="800" fill="#2563eb">$214K</text><text x="426" y="137" font-size="15" fill="#64748b">Orders</text><text x="426" y="169" font-size="28" font-weight="800" fill="#b45309">8,420</text><text x="590" y="137" font-size="15" fill="#64748b">Growth</text><text x="590" y="169" font-size="28" font-weight="800" fill="#15803d">+12%</text></g><g transform="translate(105 250)"><text x="0" y="0" font-family="Arial" font-size="16" font-weight="700" fill="#17212b">Monthly Sales Trend</text><polyline points="0,130 45,100 90,112 135,70 180,88 225,42 270,55 315,20" fill="none" stroke="#2563eb" stroke-width="7" stroke-linecap="round" stroke-linejoin="round"/><line x1="0" y1="150" x2="320" y2="150" stroke="#cbd5e1"/></g><g transform="translate(492 250)"><text x="0" y="0" font-family="Arial" font-size="16" font-weight="700" fill="#17212b">Sales by Category</text><rect x="0" y="98" width="180" height="28" fill="#0f766e"/><rect x="0" y="58" width="138" height="28" fill="#2563eb"/><rect x="0" y="18" width="95" height="28" fill="#f59e0b"/><text x="188" y="118" font-family="Arial" font-size="13" fill="#334155">Technology</text><text x="146" y="78" font-family="Arial" font-size="13" fill="#334155">Office</text><text x="103" y="38" font-family="Arial" font-size="13" fill="#334155">Home</text></g></svg>