<svg xmlns="http://www.w3.org/2000/svg" viewBox="0 0 800 520"><rect width="800" height="520" fill="#f7fbff"/><rect x="52" y="42" width="696" height="436" rx="14" fill="#fff" stroke="#d8e1e8"/><text x="82" y="84" font-family="Arial" font-size="27" font-weight="800" fill="#17212b">Customer Support Dashboard</text><g><rect x="82" y="112" width="145" height="84" rx="10" fill="#ecfeff" stroke="#bae6fd"/><rect x="247" y="112" width="145" height="84" rx="10" fill="#f0fdf4" stroke="#bbf7d0"/><rect x="412" y="112" width="145" height="84" rx="10" fill="#fff7ed" stroke="#fed7aa"/><rect x="577" y="112" width="145" height="84" rx="10" fill="#fef2f2" stroke="#fecaca"/></g><g font-family="Arial"><text x="102" y="144" font-size="14" fill="#64748b">Tickets</text><text x="102" y="176" font-size="28" font-weight="800" fill="#0f766e">82%</text><text x="267" y="144" font-size="14" fill="#64748b">SLA</text><text x="267" y="176" font-size="28" font-weight="800" fill="#2563eb">24</text><text x="432" y="144" font-size="14" fill="#64748b">Backlog</text><text x="432" y="176" font-size="28" font-weight="800" fill="#f59e0b">$48K</text><text x="597" y="144" font-size="14" fill="#64748b">CSAT</text><text x="597" y="176" font-size="28" font-weight="800" fill="#be123c">+9%</text></g><rect x="82" y="226" width="310" height="198" rx="10" fill="#f8fafc" stroke="#e2e8f0"/><rect x="418" y="226" width="304" height="198" rx="10" fill="#f8fafc" stroke="#e2e8f0"/><g transform="translate(112 270)"><text x="0" y="0" font-family="Arial" font-size="16" font-weight="700" fill="#17212b">Trend</text><polyline points="0,120 42,95 84,102 126,65 168,75 210,40 252,55" fill="none" stroke="#2563eb" stroke-width="7" stroke-linecap="round" stroke-linejoin="round"/><line x1="0" y1="140" x2="260" y2="140" stroke="#cbd5e1"/></g><g transform="translate(448 270)"><text x="0" y="0" font-family="Arial" font-size="16" font-weight="700" fill="#17212b">Breakdown</text><rect x="0" y="40" width="215" height="26" fill="#0f766e"/><rect x="0" y="82" width="165" height="26" fill="#2563eb"/><rect x="0" y="124" width="110" height="26" fill="#f59e0b"/></g></svg>